<?xml version="1.0" encoding="UTF-8" standalone="no"?>
<svg
   xmlns:dc="http://purl.org/dc/elements/1.1/"
   xmlns:cc="http://creativecommons.org/ns#"
   xmlns:rdf="http://www.w3.org/1999/02/22-rdf-syntax-ns#"
   xmlns:svg="http://www.w3.org/2000/svg"
   xmlns="http://www.w3.org/2000/svg"
   xmlns:sodipodi="http://sodipodi.sourceforge.net/DTD/sodipodi-0.dtd"
   xmlns:inkscape="http://www.inkscape.org/namespaces/inkscape"
   inkscape:version="1.0 (4035a4f, 2020-05-01)"
   sodipodi:docname="symbol.svg"
   xml:space="preserve"
   viewBox="0 0 56.42 56.42"
   height="56.419998"
   width="56.419998"
   y="0px"
   x="0px"
   id="Capa_1"
   version="1.1"><metadata
   id="metadata49"><rdf:RDF><cc:Work
       rdf:about=""><dc:format>image/svg+xml</dc:format><dc:type
         rdf:resource="http://purl.org/dc/dcmitype/StillImage" /><dc:title></dc:title></cc:Work></rdf:RDF></metadata><defs
   id="defs47" /><sodipodi:namedview
   inkscape:current-layer="Capa_1"
   inkscape:window-maximized="0"
   inkscape:window-y="0"
   inkscape:window-x="0"
   inkscape:cy="25.052063"
   inkscape:cx="22.611328"
   inkscape:zoom="10.123408"
   showgrid="false"
   id="namedview45"
   inkscape:window-height="900"
   inkscape:window-width="1440"
   inkscape:pageshadow="2"
   inkscape:pageopacity="0"
   guidetolerance="10"
   gridtolerance="10"
   objecttolerance="10"
   borderopacity="1"
   bordercolor="#666666"
   pagecolor="#ffffff" />
<g
   transform="matrix(1.076609,0,0,1.0747138,1.2841525,7.8476466)"
   id="g12">
	<path
   id="path10"
   d="M 46.09,41.291 C 45.662,40.68 45.044,40.516 44.676,40.417 l -0.097,-0.026 c -0.496,-0.137 -0.995,-0.264 -1.494,-0.39 -0.364,-0.094 -0.729,-0.186 -1.093,-0.282 -3.782,-1.008 -7.029,-2.397 -9.932,-4.254 -2.471,-1.58 -4.903,-3.521 -7.621,-6.082 l 1.08,-1.75 c 1,-1.615 1.998,-3.229 2.979,-4.855 0.374,-0.62 0.728,-1.256 1.067,-1.871 0.296,-0.534 0.592,-1.068 0.902,-1.594 0.342,-0.576 0.797,-1.089 1.278,-1.632 0.513,-0.576 1.041,-1.171 1.47,-1.886 0.33,-0.548 0.424,-1.148 0.275,-1.735 -0.338,-1.339 -1.82,-2.221 -2.904,-2.865 -0.18,-0.107 -0.343,-0.203 -0.478,-0.29 -0.597,-0.384 -1.228,-0.579 -1.877,-0.579 -0.625,0 -1.247,0.181 -1.853,0.537 -0.891,0.526 -1.897,0.828 -2.678,1.032 -1.504,0.395 -3.058,0.655 -4.74,0.795 0.856,-1.804 1.683,-3.51 2.809,-5.069 C 21.844,7.517 21.914,7.408 21.977,7.296 22.548,6.279 22.434,5.213 21.664,4.374 20.8,3.431 19.678,2.701 18.33,2.204 18.059,2.104 17.818,2.056 17.594,2.056 c -0.376,0 -0.719,0.141 -0.966,0.396 -0.395,0.407 -0.425,0.953 -0.413,1.328 0.067,2.119 -0.761,4.322 -1.562,6.453 l -0.072,0.199 C 12.249,16.642 8.652,22.445 4.453,26.773 4.16,27.076 3.913,27.39 3.675,27.699 l -0.125,0.16 c -0.161,0.205 -0.224,0.409 -0.261,0.532 l -0.226,0.585 0.418,0.491 0.043,0.046 0.035,0.038 0.497,0.533 0.659,-0.312 c 0.074,-0.035 0.148,-0.068 0.223,-0.101 0.188,-0.083 0.401,-0.179 0.613,-0.3 2.317,-1.34 4.411,-3.137 6.553,-5.631 0.602,0.638 1.292,1.182 1.96,1.709 0.54,0.427 1.05,0.83 1.501,1.266 0.87,0.843 1.768,1.802 2.676,2.857 -0.025,0.03 -0.051,0.062 -0.076,0.092 -0.407,0.488 -0.827,0.994 -1.257,1.468 -1.64,1.81 -3.616,3.524 -6.04,5.245 -2.53,1.796 -5.301,3.643 -8.426,4.992 -0.344,0.146 -0.635,0.332 -0.952,0.539 -0.243,0.16 -0.37,0.363 -0.455,0.498 -0.019,0.031 -0.041,0.066 -0.069,0.104 L 0,43.864 1.648,44.087 c 0.074,0.005 0.139,0.018 0.198,0.027 0.144,0.026 0.306,0.056 0.492,0.056 0.041,0 0.081,-0.001 0.122,-0.004 0.565,-0.04 1.133,-0.08 1.705,-0.169 5.873,-0.907 11.47,-4.405 17.607,-11.004 0.763,0.735 1.531,1.471 2.299,2.203 1.435,1.369 2.917,2.785 4.341,4.203 0.196,0.195 0.393,0.396 0.589,0.594 1.13,1.146 2.298,2.33 3.761,3.164 1.422,0.812 3.106,1.207 5.15,1.207 0.583,0 1.188,-0.032 1.846,-0.098 0.291,-0.027 1.744,-0.307 3.025,-0.591 2.833,-0.628 3.167,-0.858 3.396,-1.358 l 0.24,-0.521 z M 23.674,21.274 c -0.893,1.721 -1.887,3.401 -2.958,5.004 -0.9,-0.834 -2.428,-2.388 -2.851,-2.842 -0.174,-0.187 -0.341,-0.381 -0.506,-0.571 -0.781,-0.902 -1.662,-1.92 -3.029,-1.998 1.144,-1.65 2.102,-3.291 2.874,-4.673 0.533,0.158 1.091,0.235 1.694,0.235 0.972,0 1.905,-0.202 2.807,-0.397 0.399,-0.086 0.798,-0.173 1.2,-0.24 l 0.215,-0.037 c 0.455,-0.08 1.143,-0.2 1.755,-0.2 0.037,0 0.896,0.003 0.922,0.237 0.146,1.336 -0.84,3.13 -1.632,4.571 -0.176,0.321 -0.343,0.626 -0.491,0.911 z" />
</g>
<g
   id="g14">
</g>
<g
   id="g16">
</g>
<g
   id="g18">
</g>
<g
   id="g20">
</g>
<g
   id="g22">
</g>
<g
   id="g24">
</g>
<g
   id="g26">
</g>
<g
   id="g28">
</g>
<g
   id="g30">
</g>
<g
   id="g32">
</g>
<g
   id="g34">
</g>
<g
   id="g36">
</g>
<g
   id="g38">
</g>
<g
   id="g40">
</g>
<g
   id="g42">
</g>
<rect
   y="9.3841925"
   x="32.202595"
   height="4.247582"
   width="24.497679"
   id="rect246"
   style="fill:#000000" /></svg>
