<?xml version="1.0" encoding="UTF-8"?>
<!-- Generated by Pixelmator Pro 3.0 -->
<svg width="70" height="70" viewBox="0 0 70 70" xmlns="http://www.w3.org/2000/svg" xmlns:xlink="http://www.w3.org/1999/xlink">
    <g id="g12">
        <path id="path10" fill="#000000" stroke="none" d="M 57.90506 58.803654 C 57.444271 58.147003 56.778927 57.970749 56.382732 57.864353 L 56.278301 57.836411 C 55.744305 57.689178 55.207077 57.552685 54.669849 57.417274 C 54.277966 57.316254 53.885002 57.217377 53.493118 57.114204 C 49.421379 56.030891 45.925632 54.538113 42.800236 52.542374 C 40.139935 50.844322 37.521622 48.758305 34.595398 46.005962 L 35.758137 44.125214 C 36.834747 42.389549 37.909203 40.654961 38.965355 38.907478 C 39.368008 38.241158 39.749126 37.55764 40.114098 36.89669 C 40.432774 36.322792 40.75145 35.748894 41.085197 35.183594 C 41.4534 34.56456 41.943256 34.013233 42.461105 33.429661 C 43.013405 32.810627 43.581852 32.171173 44.04372 31.402752 C 44.398998 30.813808 44.500202 30.16898 44.339787 29.538124 C 43.975895 28.099083 42.38036 27.151184 41.213314 26.459068 C 41.019524 26.344074 40.844036 26.240902 40.698696 26.1474 C 40.055958 25.734711 39.376617 25.525143 38.677902 25.525143 C 38.00502 25.525143 37.335369 25.719666 36.682945 26.102264 C 35.723686 26.667564 34.640617 26.992126 33.799786 27.211369 C 32.180565 27.63588 30.507515 27.915306 28.696657 28.065765 C 29.618237 26.126984 30.508591 24.293522 31.720852 22.618042 C 31.801598 22.506271 31.876961 22.38913 31.944786 22.268761 C 32.559532 21.175777 32.436798 20.030132 31.607809 19.128445 C 30.677618 18.11499 29.469664 17.330452 28.018394 16.796318 C 27.726633 16.688847 27.467173 16.63726 27.226011 16.63726 C 26.821205 16.63726 26.451929 16.788795 26.186007 17.062847 C 25.760746 17.500256 25.728447 18.087048 25.741367 18.490067 C 25.813499 20.767384 24.922068 23.134979 24.059704 25.425194 L 23.982187 25.639061 C 21.471535 32.313034 17.598972 38.549599 13.078293 43.200958 C 12.762846 43.526596 12.496923 43.864059 12.24069 44.196144 L 12.106114 44.368095 C 11.93278 44.588417 11.864954 44.807655 11.82512 44.93985 L 11.581806 45.568554 L 12.031829 46.096237 L 12.078122 46.145676 L 12.115804 46.186516 L 12.650879 46.759338 L 13.360364 46.424026 C 13.440033 46.386414 13.519702 46.350945 13.600448 46.315479 C 13.80285 46.22628 14.032168 46.123108 14.260409 45.993065 C 16.754911 44.552948 19.009331 42.621689 21.315428 39.941353 C 21.963547 40.627022 22.706406 41.211666 23.425581 41.778038 C 24.00695 42.236938 24.556021 42.670052 25.041571 43.138626 C 25.97822 44.044609 26.945015 45.07526 27.922575 46.209084 C 27.89566 46.241325 27.86767 46.275719 27.840755 46.307957 C 27.402575 46.83242 26.950397 47.376221 26.487457 47.885635 C 24.721817 49.830872 22.594439 51.672928 19.984739 53.522511 C 17.260918 55.452698 14.277635 57.437695 10.913231 58.887482 C 10.542878 59.044388 10.229586 59.244286 9.8883 59.466755 C 9.626684 59.638706 9.489954 59.856873 9.398443 60.001957 C 9.377987 60.035278 9.354301 60.072891 9.324157 60.113728 L 8.284153 61.56889 L 10.058404 61.808556 C 10.138073 61.813927 10.208054 61.827896 10.271573 61.83757 C 10.426604 61.865513 10.601015 61.897755 10.801264 61.897755 C 10.845406 61.897755 10.888471 61.896679 10.932611 61.893456 C 11.540895 61.850468 12.152409 61.807476 12.768229 61.71183 C 19.091154 60.737064 25.116934 56.977715 31.724083 49.885681 C 32.545536 50.675594 33.372368 51.466583 34.199207 52.253273 C 35.744141 53.724556 37.339676 55.246349 38.872768 56.770294 C 39.083782 56.979866 39.295876 57.195881 39.506889 57.408676 C 40.723457 58.640297 41.980938 59.912762 43.556015 60.809071 C 45.086952 61.68174 46.899963 62.106247 49.100552 62.106247 C 49.728214 62.106247 50.379562 62.071861 51.087971 62.000927 C 51.401264 61.971909 52.965576 61.67099 54.344715 61.365772 C 57.394749 60.690853 57.754333 60.443668 58.000877 59.906311 L 58.259262 59.346386 Z M 33.771793 37.291107 C 32.810379 39.140694 31.740232 40.946209 30.587183 42.668976 C 29.618237 41.772667 27.973177 40.102562 27.517771 39.614639 C 27.330442 39.41367 27.150648 39.205173 26.973007 39.000977 C 26.132175 38.031586 25.183683 36.937531 23.711958 36.853699 C 24.9436 35.080421 25.974991 33.316818 26.806133 31.831562 C 27.379965 32.001366 27.980713 32.084122 28.62991 32.084122 C 29.676373 32.084122 30.680849 31.867027 31.651951 31.657459 C 32.081516 31.565033 32.511082 31.471535 32.943882 31.399529 L 33.17535 31.359764 C 33.665207 31.273785 34.405918 31.144821 35.0648 31.144821 C 35.104637 31.144821 36.029442 31.148045 36.057434 31.399529 C 36.214619 32.835346 35.153084 34.763382 34.300411 36.312046 C 34.110928 36.657028 33.931129 36.984818 33.771793 37.291107 Z"/>
    </g>
    <g id="g14"/>
    <g id="g16"/>
    <g id="g18"/>
    <g id="g20"/>
    <g id="g22"/>
    <g id="g24"/>
    <g id="g26"/>
    <g id="g28"/>
    <g id="g30"/>
    <g id="g32"/>
    <g id="g34"/>
    <g id="g36"/>
    <g id="g38"/>
    <g id="g40"/>
    <g id="g42"/>
    <path id="rect246" fill="#000000" stroke="none" d="M 39.202595 15.964195 L 63.700272 15.964195 L 63.700272 20.211777 L 39.202595 20.211777 Z"/>
</svg>
